<svg width="48" height="38" viewBox="0 0 48 38" fill="none" xmlns="http://www.w3.org/2000/svg">
  <g clip-path="url(#clip0_2073_369)">
  <path d="M11.904 30.512C4.64 30.512 0.96 25.456 0.96 18.64C0.96 11.632 4.832 6.608 12.064 6.608C18.304 6.608 21.632 10.32 22.176 15.632H16.288C15.872 13.136 14.848 11.312 11.808 11.312C8 11.312 6.848 14.256 6.848 18.544C6.848 22.864 8 25.808 11.808 25.808C14.88 25.808 15.904 23.984 16.288 21.424H22.176C21.664 26.672 18.208 30.512 11.904 30.512Z" fill="black"/>
  <path d="M34.328 30.512C27.832 30.512 23.96 25.456 23.96 18.544C23.96 11.664 27.832 6.608 35.032 6.608C41.304 6.608 44.792 10.32 45.336 14.704H39.448C39.032 13.136 38.104 11.312 34.936 11.312C31.16 11.312 29.848 14.256 29.848 18.544C29.848 22.864 31.16 25.808 35.16 25.808C37.816 25.808 39.672 24.208 39.736 22H35.384V17.84H45.688V30H41.56L40.984 27.088H40.92C39.832 29.168 37.688 30.512 34.328 30.512Z" fill="black"/>
  </g>
  <defs>
  <clipPath id="clip0_2073_369">
  <rect width="48" height="38" fill="white"/>
  </clipPath>
</defs>
</svg>
