<svg width="59" height="56" viewBox="0 0 59 56" fill="none" xmlns="http://www.w3.org/2000/svg">
  <path d="M18.5531 26.7825C11.6681 29.0983 6.56823 25.4793 4.39523 19.019C2.16101 12.3767 4.22927 6.38042 11.0839 4.07479C16.9983 2.08543 21.3361 4.54273 23.5452 9.40412L17.9644 11.2813C16.7744 9.04813 15.2223 7.64577 12.3409 8.61495C8.73164 9.82897 8.57833 12.9866 9.94538 17.0509C11.3226 21.1454 13.3531 23.5686 16.9624 22.3545C19.8741 21.3752 20.2631 19.3199 19.811 16.771L25.3917 14.8939C26.5795 20.0313 24.5281 24.7727 18.5531 26.7825Z" fill="#85FF00"/>
  <path d="M42.9285 18.3707L22.6889 44.7688L19.3501 42.1391L41.3015 17.0096L42.9285 18.3707Z" fill="black"/>
  <path d="M11 45L41.5 8.5L44.5 10.5L12 46L11 45Z" fill="black"/>
  <path d="M41.3884 52.4042C35.1138 50.7229 32.6823 44.8371 34.4713 38.1606C36.2519 31.515 41.3006 27.6335 48.2552 29.4969C54.3135 31.1203 56.722 35.6085 56.1128 39.984L50.4254 38.46C50.4294 36.8378 50.0051 34.8358 46.945 34.0158C43.2977 33.0385 41.2684 35.5426 40.1586 39.6845C39.0405 43.8573 39.5459 47.0406 43.4096 48.0759C45.9751 48.7633 48.1819 47.6982 48.8152 45.582L44.6115 44.4556L45.6882 40.4373L55.6411 43.1042L52.4939 54.8499L48.5065 53.7815L48.7038 50.8196L48.642 50.803C47.0527 52.5306 44.6339 53.2739 41.3884 52.4042Z" fill="#85FF00"/>
</svg>
