<svg width="385" height="54" viewBox="0 0 385 54" fill="none" xmlns="http://www.w3.org/2000/svg">
<path d="M24.1045 53.12C8.21445 53.12 0.164453 42.06 0.164453 27.15C0.164453 11.82 8.63445 0.83 24.4545 0.83C38.1045 0.83 45.3845 8.95 46.5745 20.57H33.6945C32.7845 15.11 30.5445 11.12 23.8945 11.12C15.5645 11.12 13.0445 17.56 13.0445 26.94C13.0445 36.39 15.5645 42.83 23.8945 42.83C30.6145 42.83 32.8545 38.84 33.6945 33.24H46.5745C45.4545 44.72 37.8945 53.12 24.1045 53.12ZM74.9835 53.12C59.0935 53.12 50.2035 42.06 50.2035 26.94C50.2035 11.89 59.0935 0.83 74.9835 0.83C90.7335 0.83 99.7635 11.89 99.7635 26.94C99.7635 42.06 90.7335 53.12 74.9835 53.12ZM74.9835 42.83C84.0835 42.83 86.8835 35.69 86.8835 26.94C86.8835 18.26 84.0835 11.12 74.9835 11.12C65.8135 11.12 63.0835 18.26 63.0835 26.94C63.0835 35.69 65.8135 42.83 74.9835 42.83ZM128.714 53.12C112.824 53.12 103.934 42.06 103.934 26.94C103.934 11.89 112.824 0.83 128.714 0.83C144.464 0.83 153.494 11.89 153.494 26.94C153.494 42.06 144.464 53.12 128.714 53.12ZM128.714 42.83C137.814 42.83 140.614 35.69 140.614 26.94C140.614 18.26 137.814 11.12 128.714 11.12C119.544 11.12 116.814 18.26 116.814 26.94C116.814 35.69 119.544 42.83 128.714 42.83ZM194.624 52H159.764V1.95H172.364V41.71H194.624V52Z" fill="#85FF00"/>
<path d="M218.079 53.12C203.869 53.12 195.399 42.06 195.399 26.94C195.399 11.89 203.869 0.83 219.619 0.83C233.339 0.83 240.969 8.95 242.159 18.54H229.279C228.369 15.11 226.339 11.12 219.409 11.12C211.149 11.12 208.279 17.56 208.279 26.94C208.279 36.39 211.149 42.83 219.899 42.83C225.709 42.83 229.769 39.33 229.909 34.5H220.389V25.4H242.929V52H233.899L232.639 45.63H232.499C230.119 50.18 225.429 53.12 218.079 53.12ZM270.577 53.12C255.457 53.12 249.647 46.4 249.647 33.94V1.95H262.247V33.94C262.247 40.45 265.047 42.83 270.577 42.83C276.107 42.83 278.907 40.45 278.907 33.94V1.95H291.507V33.94C291.507 46.4 285.697 53.12 270.577 53.12ZM324.971 52H312.371V33.52L295.291 1.95H308.871L318.601 23.23H318.741L328.541 1.95H341.841L324.971 33.52V52ZM364.29 53.12C351.2 53.12 341.33 46.47 341.33 34.99H354.07C354.07 40.8 358.48 42.97 364.15 42.97C368.84 42.97 371.22 41.08 371.22 38.49C371.22 34.22 366.25 33.1 359.32 31C350.64 28.34 342.87 24.98 342.87 16.02C342.87 5.1 351.41 0.83 362.19 0.83C373.88 0.83 383.05 6.99 383.4 17.14H370.66C370.1 13.29 367.02 10.98 362.19 10.98C358.41 10.98 355.75 12.24 355.75 15.11C355.75 18.47 358.55 19.59 364.92 21.48C374.37 24.28 384.1 26.94 384.1 37.3C384.1 46.89 376.82 53.12 364.29 53.12Z" fill="black"/>
</svg>
